<mxfile host="app.diagrams.net" agent="Mozilla/5.0 (Windows NT 10.0; Win64; x64) AppleWebKit/537.36 (KHTML, like Gecko) Chrome/140.0.0.0 Safari/537.36" version="28.2.0">
  <diagram name="第 1 页" id="6NHERrtWRHWpsVHK0xxv">
    <mxGraphModel dx="837" dy="503" grid="1" gridSize="10" guides="0" tooltips="1" connect="0" arrows="1" fold="1" page="1" pageScale="1" pageWidth="827" pageHeight="1169" math="0" shadow="0">
      <root>
        <mxCell id="0" />
        <mxCell id="1" parent="0" />
        <mxCell id="o7wTCJmazLfM3it7X6xQ-2" value="" style="verticalLabelPosition=bottom;shadow=0;dashed=0;align=center;html=1;verticalAlign=top;shape=mxgraph.electrical.abstract.integrator;" vertex="1" parent="1">
          <mxGeometry x="380" y="300" width="50" height="50" as="geometry" />
        </mxCell>
        <mxCell id="o7wTCJmazLfM3it7X6xQ-3" value="" style="verticalLabelPosition=bottom;shadow=0;dashed=0;align=center;html=1;verticalAlign=top;shape=mxgraph.electrical.abstract.integrator;" vertex="1" parent="1">
          <mxGeometry x="470" y="300" width="50" height="50" as="geometry" />
        </mxCell>
        <mxCell id="o7wTCJmazLfM3it7X6xQ-4" value="" style="verticalLabelPosition=bottom;shadow=0;dashed=0;align=center;html=1;verticalAlign=top;shape=mxgraph.electrical.abstract.integrator;" vertex="1" parent="1">
          <mxGeometry x="560" y="300" width="50" height="50" as="geometry" />
        </mxCell>
        <mxCell id="o7wTCJmazLfM3it7X6xQ-5" value="u(t)" style="text;html=1;align=center;verticalAlign=middle;resizable=0;points=[];autosize=1;strokeColor=none;fillColor=none;" vertex="1" parent="1">
          <mxGeometry x="50" y="277.5" width="40" height="30" as="geometry" />
        </mxCell>
        <mxCell id="o7wTCJmazLfM3it7X6xQ-6" value="y(t)" style="text;html=1;align=center;verticalAlign=middle;resizable=0;points=[];autosize=1;strokeColor=none;fillColor=none;" vertex="1" parent="1">
          <mxGeometry x="690" y="277.5" width="40" height="30" as="geometry" />
        </mxCell>
        <mxCell id="o7wTCJmazLfM3it7X6xQ-7" value="1/3" style="ellipse;whiteSpace=wrap;html=1;aspect=fixed;" vertex="1" parent="1">
          <mxGeometry x="290" y="300" width="50" height="50" as="geometry" />
        </mxCell>
        <mxCell id="o7wTCJmazLfM3it7X6xQ-15" value="" style="edgeStyle=orthogonalEdgeStyle;rounded=0;orthogonalLoop=1;jettySize=auto;html=1;" edge="1" parent="1" source="o7wTCJmazLfM3it7X6xQ-8" target="o7wTCJmazLfM3it7X6xQ-7">
          <mxGeometry relative="1" as="geometry" />
        </mxCell>
        <mxCell id="o7wTCJmazLfM3it7X6xQ-8" value="" style="verticalLabelPosition=bottom;shadow=0;dashed=0;align=center;html=1;verticalAlign=top;shape=mxgraph.electrical.abstract.summation_point;" vertex="1" parent="1">
          <mxGeometry x="200" y="300" width="50" height="50" as="geometry" />
        </mxCell>
        <mxCell id="o7wTCJmazLfM3it7X6xQ-9" value="5" style="ellipse;whiteSpace=wrap;html=1;aspect=fixed;" vertex="1" parent="1">
          <mxGeometry x="300" y="400" width="50" height="50" as="geometry" />
        </mxCell>
        <mxCell id="o7wTCJmazLfM3it7X6xQ-10" value="-3" style="ellipse;whiteSpace=wrap;html=1;aspect=fixed;" vertex="1" parent="1">
          <mxGeometry x="430" y="500" width="50" height="50" as="geometry" />
        </mxCell>
        <mxCell id="o7wTCJmazLfM3it7X6xQ-12" value="" style="endArrow=classic;html=1;rounded=0;" edge="1" parent="1">
          <mxGeometry width="50" height="50" relative="1" as="geometry">
            <mxPoint x="50" y="322.16" as="sourcePoint" />
            <mxPoint x="110" y="322.41" as="targetPoint" />
          </mxGeometry>
        </mxCell>
        <mxCell id="o7wTCJmazLfM3it7X6xQ-13" value="4" style="ellipse;whiteSpace=wrap;html=1;aspect=fixed;" vertex="1" parent="1">
          <mxGeometry x="110" y="300" width="50" height="50" as="geometry" />
        </mxCell>
        <mxCell id="o7wTCJmazLfM3it7X6xQ-14" style="edgeStyle=orthogonalEdgeStyle;rounded=0;orthogonalLoop=1;jettySize=auto;html=1;exitX=1;exitY=0.5;exitDx=0;exitDy=0;entryX=0;entryY=0.5;entryDx=0;entryDy=0;entryPerimeter=0;" edge="1" parent="1" source="o7wTCJmazLfM3it7X6xQ-13" target="o7wTCJmazLfM3it7X6xQ-8">
          <mxGeometry relative="1" as="geometry" />
        </mxCell>
        <mxCell id="o7wTCJmazLfM3it7X6xQ-16" style="edgeStyle=orthogonalEdgeStyle;rounded=0;orthogonalLoop=1;jettySize=auto;html=1;exitX=1;exitY=0.5;exitDx=0;exitDy=0;entryX=0;entryY=0.5;entryDx=0;entryDy=0;entryPerimeter=0;" edge="1" parent="1" source="o7wTCJmazLfM3it7X6xQ-7" target="o7wTCJmazLfM3it7X6xQ-2">
          <mxGeometry relative="1" as="geometry" />
        </mxCell>
        <mxCell id="o7wTCJmazLfM3it7X6xQ-17" style="edgeStyle=orthogonalEdgeStyle;rounded=0;orthogonalLoop=1;jettySize=auto;html=1;exitX=1;exitY=0.5;exitDx=0;exitDy=0;exitPerimeter=0;entryX=0;entryY=0.5;entryDx=0;entryDy=0;entryPerimeter=0;" edge="1" parent="1" source="o7wTCJmazLfM3it7X6xQ-2" target="o7wTCJmazLfM3it7X6xQ-3">
          <mxGeometry relative="1" as="geometry" />
        </mxCell>
        <mxCell id="o7wTCJmazLfM3it7X6xQ-18" style="edgeStyle=orthogonalEdgeStyle;rounded=0;orthogonalLoop=1;jettySize=auto;html=1;exitX=1;exitY=0.5;exitDx=0;exitDy=0;exitPerimeter=0;entryX=0;entryY=0.5;entryDx=0;entryDy=0;entryPerimeter=0;" edge="1" parent="1" source="o7wTCJmazLfM3it7X6xQ-3" target="o7wTCJmazLfM3it7X6xQ-4">
          <mxGeometry relative="1" as="geometry" />
        </mxCell>
        <mxCell id="o7wTCJmazLfM3it7X6xQ-19" value="" style="endArrow=classic;html=1;rounded=0;shadow=0;strokeColor=default;curved=0;movable=1;resizable=1;rotatable=1;deletable=1;editable=1;locked=0;connectable=1;" edge="1" parent="1">
          <mxGeometry width="50" height="50" relative="1" as="geometry">
            <mxPoint x="670" y="320" as="sourcePoint" />
            <mxPoint x="740" y="320.24999999999994" as="targetPoint" />
          </mxGeometry>
        </mxCell>
        <mxCell id="o7wTCJmazLfM3it7X6xQ-20" style="edgeStyle=orthogonalEdgeStyle;rounded=0;orthogonalLoop=1;jettySize=auto;html=1;exitX=0;exitY=0.5;exitDx=0;exitDy=0;entryX=0.5;entryY=1;entryDx=0;entryDy=0;entryPerimeter=0;" edge="1" parent="1" source="o7wTCJmazLfM3it7X6xQ-9" target="o7wTCJmazLfM3it7X6xQ-8">
          <mxGeometry relative="1" as="geometry" />
        </mxCell>
        <mxCell id="o7wTCJmazLfM3it7X6xQ-21" style="edgeStyle=orthogonalEdgeStyle;rounded=0;orthogonalLoop=1;jettySize=auto;html=1;exitX=0;exitY=0.5;exitDx=0;exitDy=0;entryX=0.5;entryY=1;entryDx=0;entryDy=0;entryPerimeter=0;" edge="1" parent="1" source="o7wTCJmazLfM3it7X6xQ-10" target="o7wTCJmazLfM3it7X6xQ-8">
          <mxGeometry relative="1" as="geometry" />
        </mxCell>
        <mxCell id="o7wTCJmazLfM3it7X6xQ-24" style="edgeStyle=orthogonalEdgeStyle;rounded=0;orthogonalLoop=1;jettySize=auto;html=1;entryX=0.995;entryY=0.628;entryDx=0;entryDy=0;entryPerimeter=0;" edge="1" parent="1" source="o7wTCJmazLfM3it7X6xQ-4" target="o7wTCJmazLfM3it7X6xQ-10">
          <mxGeometry relative="1" as="geometry">
            <Array as="points">
              <mxPoint x="670" y="320" />
              <mxPoint x="670" y="531" />
            </Array>
          </mxGeometry>
        </mxCell>
        <mxCell id="o7wTCJmazLfM3it7X6xQ-26" style="edgeStyle=orthogonalEdgeStyle;rounded=0;orthogonalLoop=1;jettySize=auto;html=1;entryX=1;entryY=0.6;entryDx=0;entryDy=0;entryPerimeter=0;" edge="1" parent="1" source="o7wTCJmazLfM3it7X6xQ-2" target="o7wTCJmazLfM3it7X6xQ-9">
          <mxGeometry relative="1" as="geometry">
            <Array as="points">
              <mxPoint x="440" y="325" />
              <mxPoint x="440" y="430" />
            </Array>
          </mxGeometry>
        </mxCell>
      </root>
    </mxGraphModel>
  </diagram>
</mxfile>
